<?xml version="1.0" encoding="UTF-8"?>
<svg width="264pt" xmlns:xlink="http://www.w3.org/1999/xlink" xmlns="http://www.w3.org/2000/svg" height="264pt" viewBox="0 0 264 264" >
 <g transform="translate(78.56, 173.867)" style="fill:#7bf1ff; fill-rule:nonzero; stroke:none; stroke-width:1; stroke-linecap:butt; stroke-linejoin:miter; stroke-dasharray:none;" >
  <path d="M0 49.531 C0 49.531 7.6114 0 7.6114 0 C13.0821 2.362 19.0694 3.779 25.3805 4.036 C26.0805 4.065 26.7745 4.079 27.4695 4.079 C31.8325 4.079 36.0735 3.515 40.1225 2.454 C40.1225 2.454 60.2555 44.5 60.2555 44.5 C60.2555 44.5 0 49.531 0 49.531 " />
 </g>
 <g transform="translate(122.227, 38.3486)" style="fill:#7bf1ff; fill-rule:nonzero; stroke:none; stroke-width:1; stroke-linecap:butt; stroke-linejoin:miter; stroke-dasharray:none;" >
  <path d="M19.572 54.7032 C14.18 49.167 7.504 44.8653 0 42.292 C0 42.292 18.731 0 18.731 0 C18.731 0 54.434 24.1475 54.434 24.1475 C54.434 24.1475 19.572 54.7032 19.572 54.7032 " />
 </g>
 <g transform="translate(135.857, 135.432)" style="fill:#7bf1ff; fill-rule:nonzero; stroke:none; stroke-width:1; stroke-linecap:butt; stroke-linejoin:miter; stroke-dasharray:none;" >
  <path d="M30.634 68.229 C30.634 68.229 0 32.614 0 32.614 C10.29 24.939 17.563 13.38 19.569 0 C19.569 0 34.478 0.977 34.478 0.977 C34.478 0.977 68.758 17.082 68.758 17.082 C68.758 17.082 30.634 68.229 30.634 68.229 " />
 </g>
 <g transform="translate(144.695, 79.4697)" style="fill:#7bf1ff; fill-rule:nonzero; stroke:none; stroke-width:1; stroke-linecap:butt; stroke-linejoin:miter; stroke-dasharray:none;" >
  <path d="M66.895 59.6433 C66.895 59.6433 25.64 56.9393 25.64 56.9393 C25.64 56.9393 11.26 50.1833 11.26 50.1833 C11.693 37.5773 7.416 25.8883 0 16.8242 C0 16.8242 60.667 0 60.667 0 C60.667 0 66.895 59.6433 66.895 59.6433 " />
 </g>
 <g transform="translate(155.426, 129.653)" style="fill:#60d9ff; fill-rule:nonzero; stroke:none; stroke-width:1; stroke-linecap:butt; stroke-linejoin:miter; stroke-dasharray:none;" >
  <path d="M14.909 6.756 C14.909 6.756 0 5.779 0 5.779 C0.267 3.998 0.442 2.184 0.517 0.343 C0.522 0.228 0.525 0.115 0.529 0 C0.529 0 14.909 6.756 14.909 6.756 " />
 </g>
 <g transform="translate(55.159, 77.9424)" style="fill:#69e3ff; fill-rule:nonzero; stroke:none; stroke-width:1; stroke-linecap:butt; stroke-linejoin:miter; stroke-dasharray:none;" >
  <path d="M63.5238 98.3786 C63.5238 98.3786 51.3918 73.0416 51.3918 73.0416 C51.3918 73.0416 34.3281 74.3466 34.3281 74.3466 C34.3281 74.3466 31.0127 95.9246 31.0127 95.9246 C12.5605 87.9576 0 69.2346 0.875 47.9586 C1.9717 21.0605 24.1367 0 50.8038 0 C51.4938 0 52.1818 0.0146 52.8768 0.043 C57.8388 0.2461 62.5988 1.166 67.0678 2.6982 C67.0678 2.6982 63.7398 10.2129 63.7398 10.2129 C63.7398 10.2129 77.8718 21.5869 77.8718 21.5869 C77.8718 21.5869 70.5618 23.6136 70.5618 23.6136 C70.5618 23.6136 71.1168 28.0576 71.1168 28.0576 C66.8328 17.0361 56.3428 9.0264 43.7773 8.5117 C43.3506 8.4941 42.9258 8.4853 42.501 8.4853 C26.1455 8.4853 12.5576 21.4043 11.8818 37.8966 C11.1885 54.8256 24.3467 69.0996 41.2666 69.7926 C41.6992 69.8106 42.1299 69.8196 42.5586 69.8196 C48.6188 69.8196 54.2978 68.0436 59.0808 64.9716 C59.0808 64.9716 80.6978 90.1036 80.6978 90.1036 C75.6188 93.8906 69.8028 96.7326 63.5238 98.3786 Z M71.5138 49.1776 C72.2108 47.1596 72.7028 45.0446 72.9658 42.8546 C72.9658 42.8546 73.5188 47.2726 73.5188 47.2726 C73.5188 47.2726 71.5138 49.1776 71.5138 49.1776 Z M79.8868 21.0273 C79.8868 21.0273 86.6398 15.1094 86.6398 15.1094 C87.6508 16.1474 88.6178 17.2295 89.5358 18.3515 C89.5358 18.3515 79.8868 21.0273 79.8868 21.0273 " />
 </g>
 <g transform="translate(86.172, 150.984)" style="fill:#5bd2ff; fill-rule:nonzero; stroke:none; stroke-width:1; stroke-linecap:butt; stroke-linejoin:miter; stroke-dasharray:none;" >
  <path d="M19.8581 26.962 C19.1631 26.962 18.4691 26.948 17.7691 26.919 C11.458 26.662 5.4707 25.245 0 22.883 C0 22.883 3.3154 1.305 3.3154 1.305 C3.3154 1.305 20.3791 0 20.3791 0 C20.3791 0 32.5111 25.337 32.5111 25.337 C28.4621 26.398 24.2211 26.962 19.8581 26.962 " />
 </g>
 <g transform="translate(118.899, 80.641)" style="fill:#5bd2ff; fill-rule:nonzero; stroke:none; stroke-width:1; stroke-linecap:butt; stroke-linejoin:miter; stroke-dasharray:none;" >
  <path d="M14.132 18.8887 C14.132 18.8887 0 7.5147 0 7.5147 C0 7.5147 3.328 0 3.328 0 C10.832 2.5733 17.508 6.875 22.9 12.4112 C22.9 12.4112 16.147 18.3291 16.147 18.3291 C16.147 18.3291 14.132 18.8887 14.132 18.8887 " />
 </g>
 <g transform="translate(114.24, 125.215)" style="fill:#5bd2ff; fill-rule:nonzero; stroke:none; stroke-width:1; stroke-linecap:butt; stroke-linejoin:miter; stroke-dasharray:none;" >
  <path d="M21.617 42.831 C21.617 42.831 0 17.699 0 17.699 C5.723 14.022 10.162 8.485 12.433 1.905 C12.433 1.905 14.438 0 14.438 0 C14.438 0 15.504 8.534 15.504 8.534 C15.504 8.534 41.186 10.217 41.186 10.217 C39.18 23.597 31.907 35.156 21.617 42.831 " />
 </g>
 <g transform="translate(125.721, 96.294)" style="fill:#5bd2ff; fill-rule:nonzero; stroke:none; stroke-width:1; stroke-linecap:butt; stroke-linejoin:miter; stroke-dasharray:none;" >
  <path d="M30.234 33.3591 C30.234 33.3591 8.856 23.3161 8.856 23.3161 C8.856 23.3161 2.957 28.9211 2.957 28.9211 C2.957 28.9211 2.404 24.5031 2.404 24.5031 C2.501 23.7001 2.567 22.8871 2.601 22.0651 C2.779 17.7081 2.04 13.5261 0.555 9.7061 C0.555 9.7061 0 5.2621 0 5.2621 C0 5.2621 7.31 3.2354 7.31 3.2354 C7.31 3.2354 8.028 3.8131 8.028 3.8131 C8.028 3.8131 9.325 2.6758 9.325 2.6758 C9.325 2.6758 18.974 0 18.974 0 C26.39 9.0641 30.667 20.7531 30.234 33.3591 " />
 </g>
 <g transform="translate(133.031, 98.97)" style="fill:#59cdff; fill-rule:nonzero; stroke:none; stroke-width:1; stroke-linecap:butt; stroke-linejoin:miter; stroke-dasharray:none;" >
  <path d="M0.718 1.1373 C0.718 1.1373 0 0.5596 0 0.5596 C0 0.5596 2.015 0 2.015 0 C2.015 0 0.718 1.1373 0.718 1.1373 " />
 </g>
 <g transform="translate(128.678, 119.61)" style="fill:#59cdff; fill-rule:nonzero; stroke:none; stroke-width:1; stroke-linecap:butt; stroke-linejoin:miter; stroke-dasharray:none;" >
  <path d="M26.748 15.822 C26.748 15.822 1.066 14.139 1.066 14.139 C1.066 14.139 0 5.605 0 5.605 C0 5.605 5.899 0 5.899 0 C5.899 0 27.277 10.043 27.277 10.043 C27.273 10.158 27.27 10.271 27.265 10.386 C27.19 12.227 27.015 14.041 26.748 15.822 " />
 </g>
 <g transform="translate(66.348, 86.428)" style="fill:#fdffff; fill-rule:nonzero; stroke:none; stroke-width:1; stroke-linecap:butt; stroke-linejoin:miter; stroke-dasharray:none;" >
  <path d="M31.3701 61.3343 C30.9414 61.3343 30.5107 61.3253 30.0781 61.3073 C13.1582 60.6143 0 46.3403 0.6933 29.4113 C1.3691 12.919 14.957 0 31.3125 0 C31.7373 0 32.1621 0.0088 32.5888 0.0264 C45.1543 0.5411 55.6443 8.5508 59.9283 19.5723 C59.9283 19.5723 61.7773 34.3693 61.7773 34.3693 C61.5143 36.5593 61.0223 38.6743 60.3253 40.6923 C60.3253 40.6923 46.0083 54.2963 46.0083 54.2963 C46.0083 54.2963 47.8923 56.4863 47.8923 56.4863 C43.1093 59.5583 37.4303 61.3343 31.3701 61.3343 Z M30.374 4.6309 C17.4003 4.6309 6.6279 14.8783 6.0937 27.9623 C5.5351 41.3903 15.9755 52.7213 29.4033 53.2703 C29.747 53.2843 30.0888 53.2913 30.4306 53.2913 C43.4043 53.2913 54.1763 43.0443 54.7113 29.9603 C55.2693 16.5323 44.8293 5.2012 31.4013 4.6524 C31.0576 4.6377 30.7158 4.6309 30.374 4.6309 " />
 </g>
 <g transform="translate(112.356, 127.12)" style="fill:#fcffff; fill-rule:nonzero; stroke:none; stroke-width:1; stroke-linecap:butt; stroke-linejoin:miter; stroke-dasharray:none;" >
  <path d="M1.884 15.794 C1.884 15.794 0 13.604 0 13.604 C0 13.604 14.317 0 14.317 0 C12.046 6.58 7.607 12.117 1.884 15.794 " />
 </g>
 <g transform="translate(126.276, 106)" style="fill:#fcffff; fill-rule:nonzero; stroke:none; stroke-width:1; stroke-linecap:butt; stroke-linejoin:miter; stroke-dasharray:none;" >
  <path d="M1.849 14.797 C1.849 14.797 0 0 0 0 C1.485 3.82 2.224 8.002 2.046 12.359 C2.012 13.181 1.946 13.994 1.849 14.797 " />
 </g>
 <g transform="translate(71.883, 91.059)" style="fill:#a2fdff; fill-rule:nonzero; stroke:none; stroke-width:1; stroke-linecap:butt; stroke-linejoin:miter; stroke-dasharray:none;" >
  <path d="M24.8955 48.6604 C24.5537 48.6604 24.2119 48.6534 23.8682 48.6394 C10.4404 48.0904 0 36.7594 0.5586 23.3314 C1.0928 10.2474 11.8652 0 24.8389 0 C25.1807 0 25.5225 0.0068 25.8662 0.0215 C39.2942 0.5703 49.7342 11.9014 49.1762 25.3294 C48.6412 38.4134 37.8692 48.6604 24.8955 48.6604 Z M10.917 10.9954 C9.2842 10.9954 7.6777 11.8084 6.957 13.5844 C6.957 13.5844 6.2285 15.2224 6.2285 15.2224 C4.4912 18.6154 4.5361 24.1954 6.4619 27.5794 C7.5479 29.4814 8.7412 30.2734 9.8164 30.2734 C11.585 30.2734 13.0352 28.1294 13.1582 25.2574 C13.2481 23.2594 12.8887 22.1614 13.6807 20.1904 C14.4365 18.3544 15.6152 17.5084 15.5615 15.2764 C15.4932 12.5574 13.1807 10.9954 10.917 10.9954 Z M18.1035 4.5742 C15.1631 4.5742 13.3945 9.9074 17.7207 11.1364 C18.2754 11.2934 18.7901 11.3654 19.2647 11.3654 C21.6436 11.3654 23.0195 9.5714 23.3193 7.7705 C23.6201 5.9795 22.8516 4.1826 20.9502 4.1826 C20.3809 4.1826 19.709 4.3447 18.9346 4.7148 C18.6504 4.6191 18.3721 4.5742 18.1035 4.5742 " />
 </g>
 <g transform="translate(76.374, 102.054)" style="fill:#c5ffff; fill-rule:nonzero; stroke:none; stroke-width:1; stroke-linecap:butt; stroke-linejoin:miter; stroke-dasharray:none;" >
  <path d="M5.3252 19.278 C4.25 19.278 3.0567 18.486 1.9707 16.584 C0.0449 13.2 0 7.62 1.7373 4.227 C1.7373 4.227 2.4658 2.589 2.4658 2.589 C3.1865 0.813 4.793 0 6.4258 0 C8.6895 0 11.002 1.562 11.0703 4.281 C11.124 6.513 9.9453 7.359 9.1895 9.195 C8.3975 11.166 8.7569 12.264 8.667 14.262 C8.544 17.134 7.0938 19.278 5.3252 19.278 " />
 </g>
 <g transform="translate(85.277, 95.241)" style="fill:#c5ffff; fill-rule:nonzero; stroke:none; stroke-width:1; stroke-linecap:butt; stroke-linejoin:miter; stroke-dasharray:none;" >
  <path d="M5.8702 7.1828 C5.3956 7.1828 4.8809 7.1108 4.3262 6.9538 C0 5.7248 1.7686 0.3916 4.709 0.3916 C4.9776 0.3916 5.2559 0.4365 5.5401 0.5322 C6.3145 0.1621 6.9864 0 7.5557 0 C9.4571 0 10.2256 1.7969 9.9248 3.5879 C9.625 5.3888 8.2491 7.1828 5.8702 7.1828 " />
 </g>
</svg>
