<?xml version="1.0" encoding="UTF-8" standalone="no"?>
<!-- Created with Inkscape (http://www.inkscape.org/) -->
<svg
   xmlns:svg="http://www.w3.org/2000/svg"
   xmlns="http://www.w3.org/2000/svg"
   version="1.0"
   width="100"
   height="100"
   id="svg7909">
  <defs
     id="defs7911" />
<!-- begin icon -->
  <g
     id="layer1">
    <g
       id="g8445">
      <path
         d="M 32.203805,8.059749 C 32.203805,8.059749 36.43023,7.5982672 39.009294,11.887826 C 40.159937,13.801596 38.796621,21.032691 38.796621,21.032691 C 41.756516,17.090361 42.755988,11.900484 51.556891,11.675153"
         id="path7901"
         style="fill:none;fill-rule:evenodd;stroke:#000000;stroke-width:2;stroke-linecap:round;stroke-linejoin:miter;stroke-miterlimit:4;stroke-dasharray:none;stroke-opacity:1" />
      <path
         d="M 30.502439,26.774816 C 30.502439,26.774816 16.937147,24.389224 15.190112,31.028239 C 12.263591,42.149461 7.355626,43.237955 4.1312078,46.340575 C 4.9818908,47.829268 11.548012,50.876947 2.8551791,62.290921 C 12.000036,62.290921 10.568263,67.462895 9.4479872,71.01044 C 8.1719502,75.051191 10.724016,75.689209 8.8099771,82.920036 C 14.764775,77.390584 15.049661,83.888425 17.742161,78.879277 C 19.875753,74.909931 23.058949,81.856672 23.058949,81.856672 C 23.058949,81.856672 21.995593,83.983392 29.226411,80.793316 C 36.457237,77.603248 27.31238,87.811471 39.221967,81.644008 C 49.407669,76.369267 30.289775,26.562143 30.502439,26.774816 z"
         id="path7903"
         style="fill:#ffffff;fill-rule:evenodd;stroke:#000000;stroke-width:2;stroke-linecap:round;stroke-linejoin:miter;stroke-miterlimit:4;stroke-dasharray:none;stroke-opacity:1" />
      <path
         d="M 64.529842,89.938183 C 65.679525,85.968322 66.068305,81.998454 64.955187,78.028594 C 66.209421,81.098675 65.698709,85.525418 69.208611,86.748116 C 71.802168,87.651592 76.963363,88.174171 74.738063,92.277576"
         id="path7905"
         style="fill:none;fill-rule:evenodd;stroke:#000000;stroke-width:2;stroke-linecap:round;stroke-linejoin:miter;stroke-miterlimit:4;stroke-dasharray:none;stroke-opacity:1" />
      <path
         d="M 63.679159,18.055297 C 70.150598,14.84805 75.579398,11.634082 88.349025,14.439884 C 88.349025,14.439884 85.079754,18.656135 86.222313,20.607354 C 87.809906,23.318592 96.430534,24.010086 96.430534,24.010086 C 96.430534,24.010086 87.967824,33.924115 87.923687,38.47173 C 87.894145,41.515392 94.729168,45.277219 94.729168,45.277219 C 83.637547,46.676419 86.501573,48.896548 84.095601,50.806671 L 63.679159,18.055297 z"
         id="path7907"
         style="fill:#ffffff;fill-rule:evenodd;stroke:#000000;stroke-width:2;stroke-linecap:round;stroke-linejoin:miter;stroke-miterlimit:4;stroke-dasharray:none;stroke-opacity:1" />
      <path
         d="M 42.83738,15.290575 C 37.803921,12.619869 35.539907,23.325885 27.312372,26.562152 C 21.380851,28.895279 28.169868,34.986141 19.656208,36.983037 C 16.378626,37.751797 23.278864,41.029236 16.466132,50.381325 C 12.744063,55.490746 22.016377,53.496064 21.144901,69.309074 C 20.936709,73.0867 27.117468,69.06808 28.5884,78.241267 C 29.138205,81.670013 33.282639,71.006684 37.30792,82.282026 C 38.861895,86.634916 43.703676,74.736881 52.19491,84.196065 C 55.047466,87.373797 55.071004,76.948538 64.955187,82.282018 C 71.299355,85.705315 66.605941,70.325978 82.6069,68.671056 C 89.466083,67.961633 72.700314,69.641777 86.647659,51.232008 C 91.024219,45.455188 79.869656,43.455723 76.864774,25.498787 C 76.34121,22.370011 73.990971,25.281533 63.466487,17.204605 C 61.280825,15.52724 62.002005,19.443422 55.810323,14.652556 C 51.334963,11.189713 55.721874,22.126962 42.83738,15.290575 z"
         id="path7899"
         style="fill:#000000;fill-rule:evenodd;stroke:#000000;stroke-width:2;stroke-linecap:round;stroke-linejoin:miter;stroke-miterlimit:4;stroke-dasharray:none;stroke-opacity:1" />
    </g>
  </g>
<!-- end icon -->
</svg>
