<?xml version="1.0" encoding="UTF-8" standalone="no"?>
<!-- Created with Inkscape (http://www.inkscape.org/) -->
<svg
   xmlns:svg="http://www.w3.org/2000/svg"
   xmlns="http://www.w3.org/2000/svg"
   version="1.0"
   width="100"
   height="100"
   id="svg3212">
<!-- begin icon -->
  <g
     id="g7323">
    <path
       d="M 55.311652,10.765754 C 55.311652,10.765754 62.731734,9.4563367 58.148738,18.404072 C 63.822921,13.821085 67.532952,12.07518 64.695869,6.6192452"
       id="path3191"
       style="fill:none;fill-opacity:1;fill-rule:evenodd;stroke:#000000;stroke-width:2;stroke-linecap:round;stroke-linejoin:miter;stroke-miterlimit:4;stroke-dasharray:none;stroke-opacity:1" />
    <path
       d="M 11.009435,83.00238 C 9.2295225,79.937388 21.034243,73.368359 23.448974,64.233953 C 19.944241,62.551903 16.855456,67.781614 12.100623,64.452183"
       id="path3193"
       style="fill:none;fill-rule:evenodd;stroke:#000000;stroke-width:2;stroke-linecap:round;stroke-linejoin:miter;stroke-miterlimit:4;stroke-dasharray:none;stroke-opacity:1" />
    <path
       d="M 94.812645,55.06797 C 89.26961,56.61692 87.24608,54.748657 83.464296,55.06797 C 85.495215,57.395837 87.466142,59.723703 86.08314,62.05157"
       id="path3195"
       style="fill:none;fill-rule:evenodd;stroke:#000000;stroke-width:2;stroke-linecap:round;stroke-linejoin:miter;stroke-miterlimit:4;stroke-dasharray:none;stroke-opacity:1" />
    <path
       d="M 16.772708,53.999778 C 18.769564,52.404352 6.4895882,41.508885 1.8435089,42.688758 C -0.54391832,43.295044 4.6409956,39.953951 9.0714322,37.319839 C 11.959325,35.602839 14.10863,35.608622 14.456108,31.634809 C 14.803585,27.660986 18.352372,27.881197 17.812393,23.921544 C 17.280563,20.021624 14.532815,14.0867 13.169108,10.298111 C 25.439474,16.123078 35.222889,16.885087 36.592505,12.097605 L 38.136904,6.6991552 C 48.146402,12.151993 48.552845,14.989175 51.521702,18.524306 L 16.772708,53.999778 z"
       id="path3197"
       style="fill:#ffffff;fill-opacity:1;fill-rule:evenodd;stroke:#000000;stroke-width:2;stroke-linecap:round;stroke-linejoin:miter;stroke-miterlimit:4;stroke-dasharray:none;stroke-opacity:1" />
    <path
       d="M 68.379628,23.293037 C 66.948699,24.768648 84.630172,20.204804 92.997568,16.597669 C 94.679786,16.171615 83.258599,24.408931 83.258599,27.75662 C 83.258599,31.104311 86.504922,28.314573 86.77545,31.383287 C 87.045979,34.452 86.72957,34.983407 89.480706,35.846858 L 95.702822,37.799679 C 85.907475,41.711099 84.805799,38.202357 79.741758,46.447879 C 74.601756,54.817104 68.650157,23.572013 68.379628,23.293037 z"
       id="path3199"
       style="fill:#ffffff;fill-opacity:1;fill-rule:evenodd;stroke:#000000;stroke-width:2;stroke-linecap:round;stroke-linejoin:miter;stroke-miterlimit:4;stroke-dasharray:none;stroke-opacity:1" />
    <path
       d="M 39.038504,81.943243 C 42.036982,92.992493 40.59004,91.766134 46.943586,92.992504 C 51.032421,93.781732 50.090638,86.698257 52.395378,89.309413 C 54.485222,91.677107 57.392837,92.992493 57.574565,97.990974 L 62.208569,92.466335 C 63.514758,90.9091 67.003069,95.374865 70.113645,93.518652 C 73.569368,91.456468 68.209728,91.989647 70.931417,86.152482 C 73.384726,80.890936 73.819421,85.508659 76.655787,87.204789 C 82.107574,72.998618 78.563913,59.318584 78.563913,59.318584 L 39.038504,81.943243 z"
       id="path3201"
       style="fill:#ffffff;fill-opacity:1;fill-rule:evenodd;stroke:#000000;stroke-width:2;stroke-linecap:round;stroke-linejoin:miter;stroke-miterlimit:4;stroke-dasharray:none;stroke-opacity:1" />
    <path
       d="M 34.142613,23.20529 C 30.689475,26.85819 25.523493,21.685091 25.286235,25.02057 C 24.909143,30.321913 23.123849,30.804927 21.218527,37.015038 C 20.199994,40.334798 16.010234,38.789918 16.580004,41.510804 C 17.487025,45.842194 19.651991,47.981135 14.858671,55.501899 C 13.210014,58.088656 20.749226,56.814021 21.921311,61.83334 C 24.346978,72.220957 20.007794,69.105402 28.869806,74.263179 C 35.815006,78.305356 32.66504,81.46539 47.018626,83.657089 C 50.9535,84.257916 53.595825,82.630162 55.921159,81.086216 C 58.687829,79.249236 58.511338,86.373394 66.416885,76.393988 C 68.943599,73.204442 70.660536,78.840791 72.942662,72.903398 C 75.427585,66.438398 87.130375,56.790092 84.991962,54.41327 C 76.453103,44.922434 84.186307,36.058636 80.667571,33.38649 C 72.86448,27.460771 73.344764,24.46061 69.755035,24.106954 C 60.429698,23.18824 62.246655,16.813287 58.585208,17.531124 C 48.73352,19.462576 42.382873,16.334689 39.163239,16.281698 C 36.698594,16.241125 37.59575,19.55239 34.142613,23.20529 z"
       id="path2411"
       style="fill:#000000;fill-opacity:1;fill-rule:evenodd;stroke:#000000;stroke-width:2;stroke-linecap:round;stroke-linejoin:miter;stroke-miterlimit:4;stroke-dasharray:none;stroke-opacity:1" />
  </g>
<!-- end icon -->
  <defs
     id="defs3214" />
</svg>
