<?xml version="1.0" encoding="UTF-8" standalone="no"?>
<!-- Created with Inkscape (http://www.inkscape.org/) -->
<svg
   xmlns:svg="http://www.w3.org/2000/svg"
   xmlns="http://www.w3.org/2000/svg"
   version="1.0"
   width="100"
   height="100"
   id="svg3433">
  <defs
     id="defs3435" />
<!-- begin icon -->
  <g
     id="layer1">
    <g
       transform="matrix(1.4901132,0,0,1.5301899,109.07587,56.925882)"
       id="g3561">
      <path
         d="M -36.347236,-27.189671 C -50.419296,-27.131181 -64.323846,-19.066171 -64.284736,-1.4084208 C -62.551386,17.093239 -48.043206,22.636579 -37.409736,22.779079 C -22.034746,22.983549 -12.431606,14.338189 -10.878486,3.1540792 L -29.065986,3.2790792 C -30.413066,11.328139 -35.588656,11.222319 -38.065986,11.185329 C -44.729996,11.085879 -45.910436,3.6898092 -45.284736,0.1228292 L -10.503486,0.3415792 C -10.367716,-18.696711 -21.662406,-27.251701 -36.347236,-27.189671 z M -37.847236,-14.595921 C -37.588116,-14.614431 -37.328296,-14.598351 -37.065986,-14.595921 C -33.060566,-14.557761 -29.268246,-12.589041 -29.253486,-6.8146708 C -29.253486,-6.8146708 -31.928176,-6.8058208 -45.097236,-6.7209208 C -45.155466,-11.682771 -41.733996,-14.318281 -37.847236,-14.595921 z"
         id="path3251"
         style="fill:#7f8bff;fill-opacity:1;fill-rule:evenodd;" />
      <path
         d="M -14.509426,-20.205411 C -14.509426,-20.205411 -13.942546,-30.965571 -18.501786,-30.890831 C -25.664536,-30.773411 -51.768556,-13.747871 -59.364716,13.494749 C -64.069086,30.366369 -45.978576,22.301429 -45.978576,22.301429 C -45.978576,22.301429 -70.060076,35.318329 -67.936536,12.555379 C -65.832556,-10.115241 -28.275836,-37.746351 -18.266946,-35.118031 C -10.113326,-32.976911 -14.392006,-20.205411 -14.509426,-20.205411 z"
         id="path3258"
         style="fill:#f7ff4c;fill-opacity:1;fill-rule:evenodd;" />
    </g>
  </g>
<!-- end icon -->
</svg>
