<?xml version="1.0" encoding="UTF-8" standalone="no"?>
<!-- Created with Inkscape (http://www.inkscape.org/) -->
<svg
   xmlns:svg="http://www.w3.org/2000/svg"
   xmlns="http://www.w3.org/2000/svg"
   version="1.0"
   width="100"
   height="100"
   id="svg3433">
  <defs
     id="defs3435" />
<!-- begin icon -->
  <g
     id="layer1"
     stroke="none">
    <g
       transform="matrix(1.4801717,0,0,1.4801717,-27.126478,-25.659388)"
       id="g3449">
      <path
         d="M 46.264343,536.58521 A 21.077284,27.183237 0 1 1 4.1097755,536.58521 A 21.077284,27.183237 0 1 1 46.264343,536.58521 z"
         transform="matrix(1.367688,0,0,1.0863931,17.809663,-531.87616)"
         id="path3295"
         style="opacity:1;fill:#39b9dd;fill-opacity:1;stroke:#000000;stroke-width:0;stroke-miterlimit:4;stroke-dasharray:none;stroke-opacity:1" />
      <path
         d="M 64.645744,67.916386 C 60.720951,67.237446 54.602133,67.191866 54.077747,62.632396 C 53.553361,58.072926 57.903012,56.907326 61.945033,55.352216 C 60.6433,54.892616 58.488758,53.744326 58.774635,52.299246 C 59.060512,50.854166 60.18194,48.940566 58.774634,47.484936 C 57.367328,46.029296 53.891166,45.802866 55.721657,43.140316 C 57.606578,40.398596 60.544518,45.598526 61.710189,43.022886 C 62.920133,40.349436 60.653237,39.754886 61.945033,38.913116 C 63.293062,38.034696 64.337552,39.104846 65.4677,43.375156 C 65.459729,46.738216 64.749148,46.357156 67.229032,46.662976 C 69.593296,46.954546 63.098101,50.354896 68.638099,50.420486 C 74.178097,50.486076 77.227751,51.653036 76.857651,55.352226 C 76.857651,55.352226 68.474518,51.906476 66.994188,54.530256 C 65.513857,57.154036 71.573653,61.693016 71.573653,61.693016 L 68.285832,65.450526 L 64.645744,67.916386 z"
         id="path3301"
         style="opacity:1;fill:#3387b5;fill-opacity:1;fill-rule:evenodd;stroke:none;stroke-width:1px;stroke-linecap:butt;stroke-linejoin:miter;stroke-opacity:1" />
      <path
         d="M 30.006197,31.867776 C 34.983239,32.435186 48.42239,34.084076 47.619526,31.750356 C 46.805048,29.382866 50.38558,29.816196 50.320236,28.345116 C 50.254454,26.864196 48.380731,27.625766 48.206637,25.409556 C 49.226037,23.845676 50.476492,22.160576 53.608058,23.413386 C 53.839361,26.104106 55.137339,25.632106 55.604235,27.405736 C 55.925791,29.088786 53.124879,29.480196 56.895879,30.928406 C 54.701111,33.336196 53.650064,31.378026 50.555081,33.276846 C 50.892375,40.048016 59.236044,29.589456 62.2973,33.511686 C 65.294344,38.322006 70.326206,42.849286 69.225209,37.151776 L 76.857651,34.451076 C 71.768729,25.119086 63.4116,21.929956 52.433836,20.830096 C 39.992779,21.161776 34.443388,26.610636 30.006197,31.867776 z"
         id="path3299"
         style="opacity:1;fill:#3387b5;fill-opacity:1;fill-rule:evenodd;stroke:none;stroke-width:1px;stroke-linecap:butt;stroke-linejoin:miter;stroke-opacity:1" />
      <path
         d="M 42.335528,43.962266 C 42.335528,43.962266 44.918817,39.500216 47.73695,38.560846 C 49.533166,37.962106 36.581841,39.147956 42.335528,43.962266 z"
         id="path3303"
         style="opacity:1;fill:#efead3;fill-opacity:1;fill-rule:evenodd;stroke:none;stroke-width:1px;stroke-linecap:butt;stroke-linejoin:miter;stroke-opacity:1" />
      <path
         d="M 27.657754,25.644406 C 25.518256,27.823486 24.712727,32.433266 25.074465,37.738886 C 22.546191,38.741216 21.389048,41.800236 20.729844,45.606176 L 23.547977,45.371326 C 22.413609,48.141426 22.613046,52.578786 22.608599,56.761286 C 24.302616,71.171216 36.954251,79.847436 52.551259,81.185106 C 67.956273,80.683096 81.367169,68.827336 83.315868,48.541726 C 83.027718,43.219366 83.603568,38.841966 78.266718,29.989026 L 77.444768,34.451066 C 75.240588,28.836246 71.085698,24.334496 60.183702,24.000496 C 62.052878,25.497416 65.672998,25.243406 65.585118,28.697376 L 61.945038,29.167076 C 66.629528,30.405216 71.295678,34.028486 74.744048,37.738886 C 74.633178,39.407626 73.601288,39.786926 71.925918,39.265376 C 73.590588,46.651886 73.103858,48.813556 72.630458,51.007596 L 70.634278,47.837196 C 70.495848,53.143146 71.109908,59.064776 67.698718,61.693016 L 67.229028,58.287776 C 63.772288,61.610786 62.442768,64.873246 55.486814,66.155056 C 50.358997,66.737706 47.945172,64.208406 45.153661,62.162706 C 51.713097,60.449716 54.867862,58.427206 58.070102,56.409016 C 56.927865,55.218676 55.907998,52.487406 51.846726,53.590886 C 47.754282,54.702836 43.796447,58.959646 39.987085,48.541726 C 41.8228,46.549906 43.262437,47.795626 46.210461,48.893996 C 46.776196,47.563216 45.476874,45.058206 42.100684,43.022886 C 42.080378,39.137596 44.701872,38.795776 48.089217,38.560846 C 44.210866,37.196236 44.049935,35.865996 42.452951,34.216226 C 43.334573,31.915126 44.350541,29.550346 46.797572,27.875416 C 42.833771,27.370816 42.31942,29.740756 40.104507,30.693556 C 33.887473,32.390376 29.925261,33.639736 27.657754,25.644406 z"
         id="path3293"
         style="opacity:1;fill:#ef8633;fill-opacity:1;fill-rule:evenodd;stroke:none;stroke-width:1px;stroke-linecap:butt;stroke-linejoin:miter;stroke-opacity:1" />
      <path
         d="M 44.478482,36.727376 C 45.548168,37.571046 46.287396,38.300076 47.854371,38.637836 C 47.854371,38.637836 47.725269,37.668986 46.914993,37.382036 C 46.287619,37.159856 45.740771,36.843026 44.478482,36.727376 z"
         id="path3305"
         style="opacity:1;fill:#000000;fill-opacity:1;fill-rule:evenodd;stroke:none;stroke-width:1px;stroke-linecap:butt;stroke-linejoin:miter;stroke-opacity:1" />
    </g>
  </g>
<!-- end icon -->
</svg>
