<?xml version="1.0" encoding="UTF-8" standalone="no"?>
<!-- Created with Inkscape (http://www.inkscape.org/) -->
<svg
   xmlns:svg="http://www.w3.org/2000/svg"
   xmlns="http://www.w3.org/2000/svg"
   version="1.0"
   width="100"
   height="100"
   id="svg3433">
  <defs
     id="defs3435" />
<!-- begin icon -->
  <g
     transform="matrix(1.6803408,0,0,1.6803408,1.5891856,-1.1094871)"
     id="g4115"
     stroke="none">
    <path
       d="M 375.12966,493.5701 A 24.493858,3.9854412 0 1 1 326.14194,493.5701 A 24.493858,3.9854412 0 1 1 375.12966,493.5701 z"
       transform="matrix(0.7543802,0,0,0.6911247,-235.16048,-284.67291)"
       id="path4054"
       style="opacity:1;fill:#9d9f9f;fill-opacity:1;stroke:none;stroke-width:1;stroke-miterlimit:4;stroke-dasharray:none;stroke-opacity:1" />
    <path
       d="M 29.352231,1.9283221 C 14.654561,1.9283221 2.7223367,14.760462 2.7223267,30.566803 C 2.7223267,46.373133 14.654551,59.205283 29.352231,59.205283 C 44.049901,59.205283 55.982121,46.373133 55.982131,30.566803 C 55.982131,14.760472 44.049901,1.9283121 29.352231,1.9283221 z M 29.114661,7.3277321 C 37.283901,7.2405121 40.285221,18.409982 40.129461,30.502013 C 39.972221,42.708793 39.459061,54.013013 29.697791,53.913863 C 19.938361,53.814743 18.627361,41.077703 18.682991,29.594903 C 18.738631,18.110982 20.830651,7.4161821 29.114661,7.3277321 z"
       id="path4033"
       style="opacity:1;fill:#c74c48;fill-opacity:1;stroke:none;stroke-width:1;stroke-miterlimit:4;stroke-dasharray:none;stroke-opacity:1" />
  </g>
<!-- end icon -->
</svg>
