<?xml version="1.0" encoding="UTF-8" standalone="no"?>
<!-- Created with Inkscape (http://www.inkscape.org/) -->
<svg
   xmlns:svg="http://www.w3.org/2000/svg"
   xmlns="http://www.w3.org/2000/svg"
   version="1.0"
   width="100"
   height="100"
   id="svg3433">
  <defs
     id="defs3435" />
<!-- begin icon -->
  <g
     id="layer1"
     stroke="none">
    <g
       transform="matrix(1.4606526,0,0,1.4606526,-28.174527,-14.521525)"
       id="g3497">
      <path
         d="M 47.910713,11.366072 C 45.609702,11.366072 43.723213,13.371772 43.723213,15.834822 C 43.723212,17.588152 44.691573,19.105482 46.066963,19.834822 C 33.751332,23.322002 24.723213,34.426872 24.723213,47.584821 C 24.723211,63.534592 37.969316,76.491102 54.285715,76.491072 C 70.602115,76.491102 83.848215,63.534542 83.848215,47.584821 C 83.848215,31.635112 70.602105,18.678582 54.285715,18.678572 C 53.149585,18.678572 52.044855,18.743902 50.941965,18.866072 C 51.634415,18.069312 52.066965,17.008042 52.066965,15.834822 C 52.066965,13.371772 50.211715,11.366062 47.910713,11.366072 z M 47.941963,13.272322 C 49.238305,13.272312 50.316965,14.289642 50.316965,15.553572 C 50.316965,16.817492 49.238305,17.834822 47.941963,17.834822 C 46.645621,17.834812 45.598213,16.817502 45.598213,15.553572 C 45.59821,14.289632 46.645622,13.272322 47.941963,13.272322 z"
         id="path3260"
         style="opacity:1;fill:#bfbdbe;fill-opacity:1;stroke-width:0;stroke-miterlimit:4;stroke-dasharray:none" />
      <path
         d="M 119.41837,532.71027 A 14.208085,16.61524 0 1 1 91.002196,532.71027 A 14.208085,16.61524 0 1 1 119.41837,532.71027 z"
         transform="matrix(1.6487603,0,0,1.4134276,-119.46488,-704.68927)"
         id="path3268"
         style="opacity:1;fill:#868687;fill-opacity:0.47058824;stroke-width:0;stroke-miterlimit:4;stroke-dasharray:none" />
      <path
         d="M 117.77445,533.82581 A 14.149374,12.564175 0 1 1 89.475702,533.82581 A 14.149374,12.564175 0 1 1 117.77445,533.82581 z"
         transform="matrix(1.5311204,0,0,1.7056075,-103.95628,-862.76755)"
         id="path3272"
         style="opacity:1;fill:#689fd0;fill-opacity:0.47058824;stroke-width:0;stroke-miterlimit:4;stroke-dasharray:none" />
      <path
         d="M 86.540155,498.24686 A 2.3484437,2.2310216 0 1 1 81.843268,498.24686 A 2.3484437,2.2310216 0 1 1 86.540155,498.24686 z"
         transform="matrix(1.4,0,0,1.4736842,-66.860997,-703.8486)"
         id="path3276"
         style="opacity:1;fill:#586b99;fill-opacity:0.47058824;stroke-width:0;stroke-miterlimit:4;stroke-dasharray:none" />
      <path
         d="M 86.540155,498.24686 A 2.3484437,2.2310216 0 1 1 81.843268,498.24686 A 2.3484437,2.2310216 0 1 1 86.540155,498.24686 z"
         transform="matrix(1.4,0,0,1.4736842,-47.251497,-690.81472)"
         id="path3278"
         style="opacity:1;fill:#586b99;fill-opacity:0.47058824;stroke-width:0;stroke-miterlimit:4;stroke-dasharray:none" />
      <path
         d="M 86.540155,498.24686 A 2.3484437,2.2310216 0 1 1 81.843268,498.24686 A 2.3484437,2.2310216 0 1 1 86.540155,498.24686 z"
         transform="matrix(1.4,0,0,1.4736842,-60.285357,-671.55748)"
         id="path3280"
         style="opacity:1;fill:#586b99;fill-opacity:0.47058824;stroke-width:0;stroke-miterlimit:4;stroke-dasharray:none" />
      <path
         d="M 86.540155,498.24686 A 2.3484437,2.2310216 0 1 1 81.843268,498.24686 A 2.3484437,2.2310216 0 1 1 86.540155,498.24686 z"
         transform="matrix(1.4,0,0,1.4736842,-79.660017,-684.3565)"
         id="path3282"
         style="opacity:1;fill:#586b99;fill-opacity:0.47058824;stroke-width:0;stroke-miterlimit:4;stroke-dasharray:none" />
      <path
         d="M 51.371885,32.295992 L 50.528135,40.389741 L 46.309385,40.514741 L 47.715635,45.077241 L 40.090635,49.545991 L 48.309385,50.014741 L 48.778135,53.545991 L 52.996885,53.295991 L 57.934385,60.952242 L 57.934385,52.827241 L 61.809385,52.358491 L 61.340635,47.920991 L 69.340635,43.545991 L 60.528135,43.545991 L 59.935325,39.217401 L 55.356725,39.553571 L 51.371885,32.295992 z M 54.528135,40.858491 C 57.833805,40.858501 60.528135,43.462551 60.528135,46.670991 C 60.528135,49.879411 57.833805,52.483491 54.528135,52.483491 C 51.222465,52.483481 48.528135,49.879431 48.528135,46.670991 C 48.528135,43.462521 51.222465,40.858491 54.528135,40.858491 z"
         id="path3284"
         style="opacity:1;fill:#ffffff;fill-opacity:0.47058824;fill-rule:evenodd;stroke:none;stroke-width:1px;stroke-linecap:butt;stroke-linejoin:miter;stroke-opacity:1" />
      <path
         d="M 51.531625,44.561041 L 66.859395,32.171272 L 56.735035,49.260371 L 51.531625,44.561041 z"
         id="path3289"
         style="opacity:1;fill:#e96b65;fill-opacity:1;fill-rule:evenodd;stroke:none;stroke-width:1px;stroke-linecap:butt;stroke-linejoin:miter;stroke-opacity:1" />
      <path
         d="M 41.613621,62.348782 L 51.717825,44.478011 L 55.352015,45.439971 L 56.583225,49.094311 L 41.613621,62.348782 z"
         id="path3291"
         style="opacity:1;fill:#ffffff;fill-opacity:1;fill-rule:evenodd;stroke:none;stroke-width:1px;stroke-linecap:butt;stroke-linejoin:miter;stroke-opacity:1" />
    </g>
  </g>
<!-- end icon -->
</svg>
